<svg viewBox="0 0 258 17" xmlns="http://www.w3.org/2000/svg" fill-rule="evenodd" clip-rule="evenodd" stroke-linecap="round" stroke-linejoin="round" stroke-miterlimit="1.5">
  <path d="M2.059 9.078h88.856c45.1 0 90.352-1.119 135.437 0 7.207.179 14.428 1.306 21.623 1.306.875 0-1.772.029-2.621-.184-1.713-.431-2.831-.803-4.735-.885-4.025-.174-8.057 0-12.086 0h-29.994c-38.376 0-76.566 4.083-114.944 4.083-12.523 0-25.07.277-37.574.277-4.226 0-8.454.437-12.678.437-1.511 0-3.01.144-4.448-.339-.594-.2-2.391-.649-1.765-.649 6.653 0 13.403 1.214 20.233.758 16.831-1.125 33.847-4.934 50.629-6.937 25.957-3.097 52.179-4.548 78.322-4.548 17.428 0 35.821-1.571 53.088 1.536 5.605 1.009 11.936 3.163 17.721 3.163 1.64 0 8.716-.153 8.716-1.673" fill="none" stroke="#000" stroke-width="4"/>
</svg>